<?xml version="1.0" standalone="no"?>
<!DOCTYPE svg PUBLIC "-//W3C//DTD SVG 20010904//EN"
 "http://www.w3.org/TR/2001/REC-SVG-20010904/DTD/svg10.dtd">
<svg version="1.0" xmlns="http://www.w3.org/2000/svg"
 width="16.000000pt" height="16.000000pt" viewBox="0 0 16.000000 16.000000"
 preserveAspectRatio="xMidYMid meet">

<g transform="translate(0.000000,16.000000) scale(0.100000,-0.100000)"
fill="#000000" stroke="none">
<path d="M50 140 c0 -5 -6 -10 -14 -10 -28 0 -32 -79 -6 -103 10 -10 11 -9 6
3 -5 9 -2 8 7 -3 20 -24 70 -22 93 5 12 14 14 19 4 13 -12 -6 -13 -5 -2 6 20
22 15 70 -8 76 -11 3 -20 9 -20 14 0 5 -13 9 -30 9 -16 0 -30 -4 -30 -10z m72
-50 c-9 -49 -46 -67 -72 -35 -10 12 -10 21 -2 40 9 20 18 25 45 23 30 -3 33
-6 29 -28z"/>
</g>
</svg>
